<?xml version="1.0" standalone="no"?>
<!DOCTYPE svg PUBLIC "-//W3C//DTD SVG 20010904//EN"
 "http://www.w3.org/TR/2001/REC-SVG-20010904/DTD/svg10.dtd">
<svg version="1.0" xmlns="http://www.w3.org/2000/svg"
 width="100.000000pt" height="100.000000pt" viewBox="0 0 100.000000 100.000000"
 preserveAspectRatio="xMidYMid meet">
<metadata>
Created by potrace 1.14, written by Peter Selinger 2001-2017
</metadata>
<g transform="translate(0.000000,100.000000) scale(0.100000,-0.100000)"
fill="#000000" stroke="none">
<path d="M0 915 c0 -47 4 -85 8 -85 5 0 16 8 25 18 46 50 186 89 276 76 79
-11 161 -55 214 -114 27 -30 55 -66 63 -82 8 -15 16 -28 18 -28 2 0 25 12 51
26 39 23 59 27 128 27 79 1 179 -22 193 -44 18 -30 24 6 24 141 l0 150 -500 0
-500 0 0 -85z"/>
<path d="M142 608 c-24 -24 -14 -41 20 -34 38 7 53 20 44 35 -9 15 -49 14 -64
-1z"/>
<path d="M318 609 c-27 -15 -21 -37 12 -44 47 -10 64 9 34 39 -18 19 -23 19
-46 5z"/>
<path d="M196 525 c-3 -9 -4 -21 0 -26 3 -5 -4 -21 -15 -35 -22 -28 -27 -54
-11 -54 6 0 10 5 10 11 0 22 44 4 51 -21 7 -24 7 -24 8 -2 1 27 38 31 56 5 11
-15 12 -14 8 12 -3 17 -11 37 -18 45 -8 8 -15 29 -17 45 -2 25 -8 30 -34 33
-22 2 -33 -2 -38 -13z"/>
<path d="M667 456 c-15 -12 -15 -15 -2 -26 18 -15 65 -5 65 14 0 12 -21 27
-38 26 -4 0 -15 -7 -25 -14z"/>
<path d="M817 453 c-18 -17 -5 -33 26 -33 40 0 51 8 36 27 -12 14 -51 18 -62
6z"/>
<path d="M200 390 c0 -5 5 -10 10 -10 6 0 10 5 10 10 0 6 -4 10 -10 10 -5 0
-10 -4 -10 -10z"/>
<path d="M724 366 c-3 -8 -1 -23 5 -34 8 -16 7 -21 -7 -27 -16 -6 -16 -7 1
-20 12 -8 14 -15 8 -20 -6 -3 -11 -13 -11 -22 0 -12 7 -14 34 -10 19 3 36 1
38 -4 5 -15 38 1 38 17 0 8 -7 17 -15 20 -13 5 -13 8 1 21 13 13 13 17 0 27
-8 6 -16 22 -18 36 -2 20 -9 26 -36 28 -21 2 -34 -2 -38 -12z"/>
<path d="M490 345 c0 -8 5 -15 10 -15 6 0 10 7 10 15 0 8 -4 15 -10 15 -5 0
-10 -7 -10 -15z"/>
<path d="M240 284 c0 -11 5 -14 16 -10 9 3 22 6 30 6 8 0 14 5 14 10 0 6 -13
10 -30 10 -21 0 -30 -5 -30 -16z"/>
<path d="M670 236 c0 -9 30 -14 35 -6 4 6 -3 10 -14 10 -12 0 -21 -2 -21 -4z"/>
<path d="M975 230 c-5 -9 4 -90 20 -170 1 -8 3 29 4 83 1 89 -7 115 -24 87z"/>
</g>
</svg>
